<mxfile host="app.diagrams.net" modified="2024-01-06T14:29:40.511Z" agent="Mozilla/5.0 (X11; Linux x86_64; rv:109.0) Gecko/20100101 Firefox/119.0" etag="2vdaT9NnOjzA74LBvIeS" version="22.1.16" type="github">
  <diagram name="Page-1" id="q_qODCpij7i2WIqxhrJG">
    <mxGraphModel dx="1728" dy="925" grid="1" gridSize="10" guides="1" tooltips="1" connect="1" arrows="1" fold="1" page="1" pageScale="1" pageWidth="850" pageHeight="1100" math="0" shadow="0">
      <root>
        <mxCell id="0" />
        <mxCell id="1" parent="0" />
        <mxCell id="drfQEtwldH-HaE2cIGH8-1" value="" style="rounded=1;whiteSpace=wrap;html=1;fillColor=#f5f5f5;fontColor=#333333;strokeColor=#666666;" vertex="1" parent="1">
          <mxGeometry x="130" y="45" width="30" height="30" as="geometry" />
        </mxCell>
        <mxCell id="drfQEtwldH-HaE2cIGH8-8" style="edgeStyle=orthogonalEdgeStyle;rounded=0;orthogonalLoop=1;jettySize=auto;html=1;exitX=1;exitY=0.5;exitDx=0;exitDy=0;" edge="1" parent="1" source="drfQEtwldH-HaE2cIGH8-7" target="drfQEtwldH-HaE2cIGH8-1">
          <mxGeometry relative="1" as="geometry" />
        </mxCell>
        <mxCell id="drfQEtwldH-HaE2cIGH8-7" value="INMP441" style="ellipse;whiteSpace=wrap;html=1;aspect=fixed;fillColor=#fff2cc;strokeColor=#d6b656;" vertex="1" parent="1">
          <mxGeometry x="30" y="20" width="80" height="80" as="geometry" />
        </mxCell>
        <mxCell id="drfQEtwldH-HaE2cIGH8-10" value="" style="shape=curlyBracket;whiteSpace=wrap;html=1;rounded=1;flipH=1;labelPosition=right;verticalLabelPosition=middle;align=left;verticalAlign=middle;rotation=90;" vertex="1" parent="1">
          <mxGeometry x="405" y="-192.5" width="50" height="595" as="geometry" />
        </mxCell>
        <mxCell id="drfQEtwldH-HaE2cIGH8-11" value="Audio Samples" style="text;html=1;strokeColor=none;fillColor=none;align=center;verticalAlign=middle;whiteSpace=wrap;rounded=0;" vertex="1" parent="1">
          <mxGeometry x="400" y="140" width="60" height="30" as="geometry" />
        </mxCell>
        <mxCell id="drfQEtwldH-HaE2cIGH8-13" value="" style="endArrow=none;dashed=1;html=1;dashPattern=1 3;strokeWidth=4;rounded=0;fillColor=#f5f5f5;strokeColor=#666666;" edge="1" parent="1">
          <mxGeometry width="50" height="50" relative="1" as="geometry">
            <mxPoint x="550" y="59.41" as="sourcePoint" />
            <mxPoint x="610" y="59.41" as="targetPoint" />
          </mxGeometry>
        </mxCell>
        <mxCell id="drfQEtwldH-HaE2cIGH8-16" value="ESP32" style="rounded=1;whiteSpace=wrap;html=1;verticalAlign=top;fontSize=19;fillColor=#eeeeee;strokeColor=#36393d;" vertex="1" parent="1">
          <mxGeometry x="40" y="200" width="760" height="590" as="geometry" />
        </mxCell>
        <mxCell id="drfQEtwldH-HaE2cIGH8-44" style="edgeStyle=orthogonalEdgeStyle;rounded=0;orthogonalLoop=1;jettySize=auto;html=1;entryX=1;entryY=0.5;entryDx=0;entryDy=0;" edge="1" parent="1" source="drfQEtwldH-HaE2cIGH8-17" target="drfQEtwldH-HaE2cIGH8-22">
          <mxGeometry relative="1" as="geometry" />
        </mxCell>
        <mxCell id="drfQEtwldH-HaE2cIGH8-17" value="&lt;div&gt;AudioInput&lt;/div&gt;" style="rounded=1;whiteSpace=wrap;html=1;horizontal=1;verticalAlign=top;fillColor=#d5e8d4;strokeColor=#82b366;" vertex="1" parent="1">
          <mxGeometry x="610" y="361.88" width="120" height="85" as="geometry" />
        </mxCell>
        <mxCell id="drfQEtwldH-HaE2cIGH8-20" style="edgeStyle=orthogonalEdgeStyle;rounded=0;orthogonalLoop=1;jettySize=auto;html=1;exitX=0.5;exitY=1;exitDx=0;exitDy=0;" edge="1" parent="1" source="drfQEtwldH-HaE2cIGH8-18" target="drfQEtwldH-HaE2cIGH8-19">
          <mxGeometry relative="1" as="geometry" />
        </mxCell>
        <mxCell id="drfQEtwldH-HaE2cIGH8-18" value="I2S Peripheral" style="rounded=1;whiteSpace=wrap;html=1;fillColor=#fff2cc;strokeColor=#d6b656;" vertex="1" parent="1">
          <mxGeometry x="625" y="200" width="90" height="60" as="geometry" />
        </mxCell>
        <mxCell id="drfQEtwldH-HaE2cIGH8-21" style="edgeStyle=orthogonalEdgeStyle;rounded=0;orthogonalLoop=1;jettySize=auto;html=1;" edge="1" parent="1" source="drfQEtwldH-HaE2cIGH8-19" target="drfQEtwldH-HaE2cIGH8-17">
          <mxGeometry relative="1" as="geometry" />
        </mxCell>
        <mxCell id="drfQEtwldH-HaE2cIGH8-19" value="DMA" style="rounded=1;whiteSpace=wrap;html=1;fillColor=#fff2cc;strokeColor=#d6b656;" vertex="1" parent="1">
          <mxGeometry x="632.5" y="290" width="75" height="50" as="geometry" />
        </mxCell>
        <mxCell id="drfQEtwldH-HaE2cIGH8-22" value="AudioFrame" style="rounded=1;whiteSpace=wrap;html=1;fillColor=#d5e8d4;strokeColor=#82b366;" vertex="1" parent="1">
          <mxGeometry x="510" y="388.75" width="70" height="31.25" as="geometry" />
        </mxCell>
        <mxCell id="drfQEtwldH-HaE2cIGH8-26" value="" style="rounded=1;whiteSpace=wrap;html=1;fillColor=#f5f5f5;fontColor=#333333;strokeColor=#666666;" vertex="1" parent="1">
          <mxGeometry x="160" y="45" width="30" height="30" as="geometry" />
        </mxCell>
        <mxCell id="drfQEtwldH-HaE2cIGH8-27" value="" style="rounded=1;whiteSpace=wrap;html=1;fillColor=#f5f5f5;fontColor=#333333;strokeColor=#666666;" vertex="1" parent="1">
          <mxGeometry x="190" y="45" width="30" height="30" as="geometry" />
        </mxCell>
        <mxCell id="drfQEtwldH-HaE2cIGH8-28" value="" style="rounded=1;whiteSpace=wrap;html=1;fillColor=#f5f5f5;fontColor=#333333;strokeColor=#666666;" vertex="1" parent="1">
          <mxGeometry x="220" y="45" width="30" height="30" as="geometry" />
        </mxCell>
        <mxCell id="drfQEtwldH-HaE2cIGH8-29" value="" style="rounded=1;whiteSpace=wrap;html=1;fillColor=#f5f5f5;fontColor=#333333;strokeColor=#666666;" vertex="1" parent="1">
          <mxGeometry x="250" y="45" width="30" height="30" as="geometry" />
        </mxCell>
        <mxCell id="drfQEtwldH-HaE2cIGH8-30" value="" style="rounded=1;whiteSpace=wrap;html=1;fillColor=#f5f5f5;fontColor=#333333;strokeColor=#666666;" vertex="1" parent="1">
          <mxGeometry x="280" y="45" width="30" height="30" as="geometry" />
        </mxCell>
        <mxCell id="drfQEtwldH-HaE2cIGH8-31" value="" style="rounded=1;whiteSpace=wrap;html=1;fillColor=#f5f5f5;fontColor=#333333;strokeColor=#666666;" vertex="1" parent="1">
          <mxGeometry x="310" y="45" width="30" height="30" as="geometry" />
        </mxCell>
        <mxCell id="drfQEtwldH-HaE2cIGH8-32" value="" style="rounded=1;whiteSpace=wrap;html=1;fillColor=#f5f5f5;fontColor=#333333;strokeColor=#666666;" vertex="1" parent="1">
          <mxGeometry x="340" y="45" width="30" height="30" as="geometry" />
        </mxCell>
        <mxCell id="drfQEtwldH-HaE2cIGH8-33" value="" style="rounded=1;whiteSpace=wrap;html=1;fillColor=#f5f5f5;fontColor=#333333;strokeColor=#666666;" vertex="1" parent="1">
          <mxGeometry x="370" y="45" width="30" height="30" as="geometry" />
        </mxCell>
        <mxCell id="drfQEtwldH-HaE2cIGH8-34" value="" style="rounded=1;whiteSpace=wrap;html=1;fillColor=#f5f5f5;fontColor=#333333;strokeColor=#666666;" vertex="1" parent="1">
          <mxGeometry x="400" y="45" width="30" height="30" as="geometry" />
        </mxCell>
        <mxCell id="drfQEtwldH-HaE2cIGH8-35" value="" style="rounded=1;whiteSpace=wrap;html=1;fillColor=#f5f5f5;fontColor=#333333;strokeColor=#666666;" vertex="1" parent="1">
          <mxGeometry x="430" y="45" width="30" height="30" as="geometry" />
        </mxCell>
        <mxCell id="drfQEtwldH-HaE2cIGH8-36" value="" style="rounded=1;whiteSpace=wrap;html=1;fillColor=#f5f5f5;fontColor=#333333;strokeColor=#666666;" vertex="1" parent="1">
          <mxGeometry x="460" y="45" width="30" height="30" as="geometry" />
        </mxCell>
        <mxCell id="drfQEtwldH-HaE2cIGH8-37" value="" style="rounded=1;whiteSpace=wrap;html=1;fillColor=#f5f5f5;fontColor=#333333;strokeColor=#666666;" vertex="1" parent="1">
          <mxGeometry x="490" y="45" width="30" height="30" as="geometry" />
        </mxCell>
        <mxCell id="drfQEtwldH-HaE2cIGH8-38" value="" style="rounded=1;whiteSpace=wrap;html=1;fillColor=#f5f5f5;fontColor=#333333;strokeColor=#666666;" vertex="1" parent="1">
          <mxGeometry x="640" y="45" width="30" height="30" as="geometry" />
        </mxCell>
        <mxCell id="drfQEtwldH-HaE2cIGH8-39" value="" style="rounded=1;whiteSpace=wrap;html=1;fillColor=#f5f5f5;fontColor=#333333;strokeColor=#666666;" vertex="1" parent="1">
          <mxGeometry x="670" y="45" width="30" height="30" as="geometry" />
        </mxCell>
        <mxCell id="drfQEtwldH-HaE2cIGH8-41" style="edgeStyle=orthogonalEdgeStyle;rounded=1;orthogonalLoop=1;jettySize=auto;html=1;curved=0;" edge="1" parent="1" source="drfQEtwldH-HaE2cIGH8-40" target="drfQEtwldH-HaE2cIGH8-18">
          <mxGeometry relative="1" as="geometry">
            <Array as="points">
              <mxPoint x="750" y="60" />
              <mxPoint x="750" y="137" />
              <mxPoint x="670" y="137" />
            </Array>
          </mxGeometry>
        </mxCell>
        <mxCell id="drfQEtwldH-HaE2cIGH8-40" value="" style="rounded=1;whiteSpace=wrap;html=1;fillColor=#f5f5f5;fontColor=#333333;strokeColor=#666666;" vertex="1" parent="1">
          <mxGeometry x="700" y="45" width="30" height="30" as="geometry" />
        </mxCell>
        <mxCell id="drfQEtwldH-HaE2cIGH8-42" value="" style="shape=curlyBracket;whiteSpace=wrap;html=1;rounded=1;flipH=1;labelPosition=right;verticalLabelPosition=middle;align=left;verticalAlign=middle;rotation=90;" vertex="1" parent="1">
          <mxGeometry x="400" y="280" width="40" height="325.63" as="geometry" />
        </mxCell>
        <mxCell id="drfQEtwldH-HaE2cIGH8-45" value="&lt;div&gt;Audio Frames&lt;/div&gt;&lt;div&gt;(256 samples)&lt;br&gt;&lt;/div&gt;" style="text;html=1;strokeColor=none;fillColor=none;align=center;verticalAlign=middle;whiteSpace=wrap;rounded=0;" vertex="1" parent="1">
          <mxGeometry x="378.75" y="470" width="81.25" height="30" as="geometry" />
        </mxCell>
        <mxCell id="drfQEtwldH-HaE2cIGH8-47" value="AudioBuffer" style="rounded=1;whiteSpace=wrap;html=1;horizontal=1;verticalAlign=top;fillColor=#d5e8d4;strokeColor=#82b366;" vertex="1" parent="1">
          <mxGeometry x="110" y="361.87" width="120" height="85" as="geometry" />
        </mxCell>
        <mxCell id="drfQEtwldH-HaE2cIGH8-50" value="Stores and keeps track of received Audio Frames" style="shape=callout;whiteSpace=wrap;html=1;perimeter=calloutPerimeter;" vertex="1" parent="1">
          <mxGeometry x="145" y="280" width="120" height="80" as="geometry" />
        </mxCell>
        <mxCell id="drfQEtwldH-HaE2cIGH8-54" value="AudioFrame" style="rounded=1;whiteSpace=wrap;html=1;fillColor=#d5e8d4;strokeColor=#82b366;" vertex="1" parent="1">
          <mxGeometry x="438.75" y="388.75" width="70" height="31.25" as="geometry" />
        </mxCell>
        <mxCell id="drfQEtwldH-HaE2cIGH8-55" value="AudioFrame" style="rounded=1;whiteSpace=wrap;html=1;fillColor=#d5e8d4;strokeColor=#82b366;" vertex="1" parent="1">
          <mxGeometry x="368.75" y="388.75" width="70" height="31.25" as="geometry" />
        </mxCell>
        <mxCell id="drfQEtwldH-HaE2cIGH8-58" style="edgeStyle=orthogonalEdgeStyle;rounded=0;orthogonalLoop=1;jettySize=auto;html=1;exitX=0;exitY=0.5;exitDx=0;exitDy=0;entryX=1;entryY=0.5;entryDx=0;entryDy=0;" edge="1" parent="1" source="drfQEtwldH-HaE2cIGH8-56" target="drfQEtwldH-HaE2cIGH8-47">
          <mxGeometry relative="1" as="geometry" />
        </mxCell>
        <mxCell id="drfQEtwldH-HaE2cIGH8-56" value="AudioFrame" style="rounded=1;whiteSpace=wrap;html=1;fillColor=#d5e8d4;strokeColor=#82b366;" vertex="1" parent="1">
          <mxGeometry x="260" y="388.75" width="70" height="31.25" as="geometry" />
        </mxCell>
        <mxCell id="drfQEtwldH-HaE2cIGH8-61" value="Stores a batch of preprocessed samples" style="shape=callout;whiteSpace=wrap;html=1;perimeter=calloutPerimeter;" vertex="1" parent="1">
          <mxGeometry x="343.75" y="308.75" width="120" height="80" as="geometry" />
        </mxCell>
        <mxCell id="drfQEtwldH-HaE2cIGH8-71" style="edgeStyle=orthogonalEdgeStyle;rounded=0;orthogonalLoop=1;jettySize=auto;html=1;entryX=0;entryY=0.5;entryDx=0;entryDy=0;" edge="1" parent="1" source="drfQEtwldH-HaE2cIGH8-64" target="drfQEtwldH-HaE2cIGH8-70">
          <mxGeometry relative="1" as="geometry" />
        </mxCell>
        <mxCell id="drfQEtwldH-HaE2cIGH8-72" value="Spectrogram" style="edgeLabel;html=1;align=center;verticalAlign=middle;resizable=0;points=[];fontSize=13;" vertex="1" connectable="0" parent="drfQEtwldH-HaE2cIGH8-71">
          <mxGeometry x="-0.0938" relative="1" as="geometry">
            <mxPoint as="offset" />
          </mxGeometry>
        </mxCell>
        <mxCell id="drfQEtwldH-HaE2cIGH8-64" value="AudioProcessor" style="rounded=1;whiteSpace=wrap;html=1;horizontal=1;verticalAlign=top;fillColor=#d5e8d4;strokeColor=#82b366;" vertex="1" parent="1">
          <mxGeometry x="110" y="560" width="120" height="85" as="geometry" />
        </mxCell>
        <mxCell id="drfQEtwldH-HaE2cIGH8-65" value="" style="endArrow=classic;startArrow=classic;html=1;rounded=0;entryX=0.5;entryY=1;entryDx=0;entryDy=0;exitX=0.5;exitY=0;exitDx=0;exitDy=0;" edge="1" parent="1" source="drfQEtwldH-HaE2cIGH8-64" target="drfQEtwldH-HaE2cIGH8-47">
          <mxGeometry width="50" height="50" relative="1" as="geometry">
            <mxPoint x="160" y="560" as="sourcePoint" />
            <mxPoint x="210" y="510" as="targetPoint" />
          </mxGeometry>
        </mxCell>
        <mxCell id="drfQEtwldH-HaE2cIGH8-66" value="&lt;div&gt;Recieve 1 second of audio&lt;/div&gt;16000 / 256 -&amp;gt; 63 AudioFrames" style="edgeLabel;html=1;align=center;verticalAlign=middle;resizable=0;points=[];" vertex="1" connectable="0" parent="drfQEtwldH-HaE2cIGH8-65">
          <mxGeometry x="0.0273" relative="1" as="geometry">
            <mxPoint as="offset" />
          </mxGeometry>
        </mxCell>
        <mxCell id="drfQEtwldH-HaE2cIGH8-67" value="" style="endArrow=none;dashed=1;html=1;dashPattern=1 3;strokeWidth=2;rounded=0;fontSize=9;" edge="1" parent="1">
          <mxGeometry width="50" height="50" relative="1" as="geometry">
            <mxPoint x="337.5" y="404.54" as="sourcePoint" />
            <mxPoint x="368.75" y="404.23" as="targetPoint" />
          </mxGeometry>
        </mxCell>
        <mxCell id="drfQEtwldH-HaE2cIGH8-76" style="edgeStyle=orthogonalEdgeStyle;rounded=0;orthogonalLoop=1;jettySize=auto;html=1;entryX=0;entryY=0.5;entryDx=0;entryDy=0;" edge="1" parent="1" source="drfQEtwldH-HaE2cIGH8-70" target="drfQEtwldH-HaE2cIGH8-75">
          <mxGeometry relative="1" as="geometry" />
        </mxCell>
        <mxCell id="drfQEtwldH-HaE2cIGH8-70" value="TensorFlowModel" style="rounded=1;whiteSpace=wrap;html=1;horizontal=1;verticalAlign=top;fillColor=#d5e8d4;strokeColor=#82b366;" vertex="1" parent="1">
          <mxGeometry x="365" y="560" width="120" height="85" as="geometry" />
        </mxCell>
        <mxCell id="drfQEtwldH-HaE2cIGH8-75" value="Prediction" style="ellipse;whiteSpace=wrap;html=1;aspect=fixed;fillColor=#dae8fc;strokeColor=#6c8ebf;" vertex="1" parent="1">
          <mxGeometry x="630" y="562.5" width="80" height="80" as="geometry" />
        </mxCell>
      </root>
    </mxGraphModel>
  </diagram>
</mxfile>
